<?xml version="1.0" standalone="no"?>
<!DOCTYPE svg PUBLIC "-//W3C//DTD SVG 1.1//EN" "http://www.w3.org/Graphics/SVG/1.1/DTD/svg11.dtd" >
<svg xmlns="http://www.w3.org/2000/svg">
<metadata>
This is a custom SVG webfont generated by Font Squirrel.
Copyright   : Copyright Statoil ASA 2009 v 12 The Statoil font is the property of Statoil ASA and should only be used for Statoil and its companies
Designer    : Melkeveien Designkontor
Foundry     : Melkeveien Designkontor
</metadata>
<defs>
<font id="webfont10YldMuw" horiz-adv-x="1228" >
<font-face units-per-em="2048" ascent="1638" descent="-410" />
<missing-glyph horiz-adv-x="501" />
<glyph unicode=" "  horiz-adv-x="501" />
<glyph unicode="&#x09;" horiz-adv-x="501" />
<glyph unicode="&#xa0;" horiz-adv-x="501" />
<glyph unicode="!" horiz-adv-x="409" d="M279 1401l-15 -1125h-119l-16 1125h150zM137 0v129h137v-129h-137z" />
<glyph unicode="&#x22;" horiz-adv-x="704" d="M229 1190h-73l-35 371h143zM477 1190h-71l-33 371h143z" />
<glyph unicode="#" horiz-adv-x="1271" d="M160 0l110 371h-221l19 73h223l117 387h-224l23 74h223l111 371h94l-113 -371h355l112 371h92l-110 -371h219l-19 -74h-223q-100 -326 -117 -387h224l-21 -73h-223l-113 -371h-92l111 371h-355l-110 -371h-92zM500 831l-117 -387h354l117 387h-354z" />
<glyph unicode="$" horiz-adv-x="1130" d="M530 1427v189h84v-189q104 -4 193.5 -33.5t126.5 -58.5l37 -26v-95l-16 16q-9 9 -43.5 33.5t-72.5 44t-99.5 37t-125.5 21.5v-539q209 -115 277 -178q131 -117 131 -287q0 -141 -111.5 -252.5t-296.5 -132.5v-174h-84v168q-246 2 -409 117l-12 10v101 q57 -57 168.5 -111.5t250.5 -54.5l2 661q-96 49 -150 83t-114.5 85t-88 110.5t-27.5 133.5q0 147 109 229t271 92zM889 324q0 109 -61.5 176t-213.5 149v-608q117 23 196 101t79 182zM270 1147q0 -84 60.5 -141.5t199.5 -133.5v494q-106 -12 -183 -68.5t-77 -150.5z" />
<glyph unicode="%" horiz-adv-x="1775" d="M1358 1403l-875 -1401h-84l871 1401h88zM424 1430q268 0 268 -355q0 -356 -268 -356q-270 0 -270 356q0 355 270 355zM424 758q174 0 174 317.5t-172 317.5q-78 0 -127 -77t-49 -241t49 -240.5t125 -76.5zM1331 684q268 0 268 -356.5t-268 -356.5q-272 0 -272 356.5 t272 356.5zM1329 10q174 0 174 318q0 315 -170 315q-80 0 -129 -75.5t-49 -239.5q0 -162 49 -240t125 -78z" />
<glyph unicode="&#x26;" horiz-adv-x="1415" d="M930 1352l-2 -92q-113 113 -262 112q-113 0 -171.5 -68.5t-58.5 -160.5q0 -25 4 -49.5t16 -49.5l19 -42q8 -17 28 -45l28 -39l34 -44l31 -38q37 -55 430 -508q82 168 82 422h135q4 -311 -133 -523l201 -227h-166l-113 129q-154 -158 -411 -158q-223 0 -353.5 116 t-130.5 292q0 242 238 371q55 31 98 43q-154 203 -154 340q0 141 98.5 219t244.5 78q84 0 151.5 -19.5t91.5 -38.5zM963 213l-445 522q-2 0 -18 -8l-31 -15q-14 -7 -37.5 -23.5t-43 -34t-41 -46t-36 -60.5t-23.5 -75t-9 -92q0 -160 103 -256t239 -96q211 0 342 184z" />
<glyph unicode="'" horiz-adv-x="423" d="M254 1190h-78l-24 371h137z" />
<glyph unicode="(" horiz-adv-x="663" d="M539 -211h-82q-115 115 -224.5 364.5t-109.5 532.5q0 289 109.5 543t224.5 366h80q-283 -371 -283 -909q0 -522 285 -897z" />
<glyph unicode=")" horiz-adv-x="690" d="M213 -211h-82q287 369 287 897q0 180 -28 334t-78 266.5t-89 177t-90 131.5h80q115 -111 225.5 -364.5t110.5 -544.5q0 -283 -110.5 -533.5t-225.5 -363.5z" />
<glyph unicode="*" horiz-adv-x="1099" d="M575 1274l-10 -227q174 70 217 83l29 -98l-229 -57l147 -178l-86 -64l-125 180l-123 -182l-88 66l146 176l-230 63l31 97l215 -86q-4 63 -10 227h116z" />
<glyph unicode="+" horiz-adv-x="1247" d="M674 944v-342h348v-102h-348v-348h-113v348h-346v102h346v342h113z" />
<glyph unicode="," horiz-adv-x="409" d="M137 0v137h137v-108l-86 -238h-55l53 209h-49z" />
<glyph unicode="-" horiz-adv-x="743" d="M117 721h510v-70h-510v70z" />
<glyph unicode="." horiz-adv-x="409" d="M137 0v137h137v-137h-137z" />
<glyph unicode="/" horiz-adv-x="1071" d="M1026 1565l-909 -1807h-101l906 1807h104z" />
<glyph unicode="0" d="M618 1370q-172 0 -275 -163t-103 -507q0 -342 103 -505.5t269 -163.5q172 0 274.5 159.5t102.5 509.5q0 670 -371 670zM614 -29q-516 0 -516 729q0 156 27 282t84 229.5t159.5 161t245.5 57.5q516 0 516 -730q0 -156 -26.5 -281.5t-83.5 -229t-160 -161t-246 -57.5z" />
<glyph unicode="1" d="M578 1401h124v-1340h322v-61h-778v61h315v1264l-336 -147v69z" />
<glyph unicode="2" d="M737 514l-448 -448h780v-66h-942v59l516 516q145 145 202.5 244t57.5 225q0 145 -80 234.5t-229 89.5q-94 0 -184.5 -39t-133.5 -78l-43 -39v95q16 14 47 34.5t125.5 54.5t188.5 34q125 0 216 -37t138 -98.5t67.5 -125t20.5 -133.5q0 -102 -46 -199.5t-98.5 -159 t-154.5 -163.5z" />
<glyph unicode="3" d="M553 774q45 0 92 13.5t96.5 45t80 95t30.5 149.5q0 147 -78 219t-196 72q-182 0 -320 -129v84q14 12 40 29.5t111 47.5t175 30q201 0 303 -101.5t102 -255.5q0 -82 -33.5 -146.5t-86 -101.5t-91.5 -55t-71 -27q29 -2 65.5 -13t84.5 -38.5t87 -65.5t65.5 -102.5 t26.5 -142.5q0 -166 -117.5 -288t-357.5 -122q-72 0 -137.5 13.5t-106.5 31t-72.5 36t-43.5 30.5l-15 14v101q6 -8 18.5 -21.5t47.5 -40t75 -48t102.5 -38t129.5 -16.5q152 0 244 97t92 253q0 47 -14.5 96t-46 103.5t-100 89.5t-161.5 35h-122v67h102z" />
<glyph unicode="4" d="M1090 475v-72h-199v-403h-139v403h-676v60l686 938h129v-926h199zM180 475h572v776z" />
<glyph unicode="5" d="M608 926q229 0 339 -134.5t110 -347.5q0 -90 -24.5 -168.5t-78 -149.5t-154 -113t-239.5 -42q-115 0 -207 32t-129 63l-35 32v107q154 -172 367 -172q193 0 275.5 119.5t82.5 291.5q0 221 -92 321.5t-235 100.5q-158 0 -250 -143l-14 -25h-93v703h748v-62h-608v-489l12 8 q12 8 24.5 15.5t36 17.5t46 17t54 12.5t64.5 5.5z" />
<glyph unicode="6" d="M633 920q229 0 347 -132.5t118 -338.5q0 -84 -25.5 -164t-79 -153t-149.5 -117t-223 -44q-254 0 -366 151.5t-112 455.5q0 190 26 335.5t85 266t171 185.5t271 65q92 0 170 -26t109 -52l31 -25v-94q-119 135 -312 135q-207 0 -309 -179t-102 -462q45 84 137 138.5 t213 54.5zM616 33q152 0 246 109.5t94 306.5q0 201 -91 304t-236 103q-137 0 -238.5 -104.5t-101.5 -302.5q0 -197 92 -306.5t235 -109.5z" />
<glyph unicode="7" d="M1116 1401v-49l-674 -1352h-153l674 1339h-828v62h981z" />
<glyph unicode="8" d="M997 1083q0 -111 -58 -200.5t-167 -122.5q152 -39 224.5 -142.5t72.5 -246.5q0 -168 -115.5 -284t-337.5 -116q-227 0 -339.5 111t-112.5 276q0 158 80 258.5t217 139.5q-113 37 -168 125t-55 194q0 166 114.5 260.5t265.5 94.5q182 0 280.5 -100t98.5 -247zM377 1073 q0 -213 160 -274q49 -18 139 -21l18 8q18 8 31 17l34 23q22 15 37 38t30.5 53.5t23.5 72.5t8 93q0 150 -58.5 218.5t-178.5 68.5q-244 0 -244 -297zM614 31q150 0 232 77.5t82 262.5q0 188 -77 261t-222 91l-64 4q-20 -6 -34.5 -9t-61.5 -31t-78 -63.5t-57.5 -105 t-26.5 -160.5q0 -162 84 -244.5t223 -82.5z" />
<glyph unicode="9" d="M598 481q-229 0 -346 131t-117 340q0 84 25.5 164t78 152.5t148.5 117t223 44.5q254 0 367 -152t113 -455q0 -190 -26 -335.5t-86 -266.5t-172 -185.5t-271 -64.5q-92 0 -170 26t-109 52l-31 25v94q127 -135 312 -135q209 0 310 179t101 462q-45 -86 -136 -139.5 t-214 -53.5zM614 1368q-152 0 -245 -109.5t-93 -306.5q0 -201 90.5 -304t235.5 -103q137 0 238.5 104.5t101.5 302.5q0 197 -91.5 306.5t-236.5 109.5z" />
<glyph unicode=":" horiz-adv-x="409" d="M137 717v137h137v-137h-137zM137 0v137h137v-137h-137z" />
<glyph unicode=";" horiz-adv-x="409" d="M137 717v137h137v-137h-137zM137 0v137h137v-108l-86 -238h-55l53 209h-49z" />
<glyph unicode="&#x3c;" horiz-adv-x="1210" d="M1010 94v-102l-834 514v47l834 516v-106l-705 -433z" />
<glyph unicode="=" horiz-adv-x="1245" d="M1032 750v-93h-833v93h833zM1032 465v-92h-833v92h833z" />
<glyph unicode="&#x3e;" horiz-adv-x="1210" d="M186 -8v102l703 436l-703 433v106l832 -516v-47z" />
<glyph unicode="?" horiz-adv-x="1054" d="M485 281h-120v94q0 176 137 276l100 68q68 45 95.5 67.5t65.5 64.5t52 91t14 115q0 143 -95 227t-226 84q-109 0 -205 -38t-139 -77l-41 -36l-2 92q14 14 43 33.5t131 53.5t219 34q190 0 316 -104.5t126 -276.5q0 -86 -21.5 -153t-61 -113t-85 -79.5t-104.5 -72.5 l-31 -19q-96 -59 -130 -104t-36 -135zM356 0v137h138v-137h-138z" />
<glyph unicode="@" horiz-adv-x="1906" d="M1765 637q0 -268 -109.5 -407.5t-266.5 -139.5q-20 0 -38 2t-32 6t-28 11l-23 11q-10 5 -19.5 14l-15.5 14.5t-13.5 14.5t-9.5 13t-8 12l-6 11q-12 -16 -33.5 -38t-87 -53.5t-137.5 -31.5q-178 0 -280.5 126t-102.5 347q0 219 108.5 347t290.5 128q152 0 248 -86l29 76 h69v-742q0 -70 29 -101.5t72 -31.5q90 0 159.5 124t69.5 374q0 143 -33.5 262t-106.5 215t-202 150.5t-305 54.5q-346 0 -524 -205t-178 -579q0 -352 186 -547t516 -195q309 0 537 180l43 39v-88q-8 -8 -22.5 -20.5t-68 -45t-115 -58t-162.5 -46t-212 -20.5 q-395 0 -616.5 210t-221.5 588q0 401 209 623.5t629 222.5q395 0 588.5 -201.5t193.5 -539.5zM1171 268l3 617q-82 82 -203 82q-145 0 -210 -116t-65 -300q0 -416 248 -416q43 0 82 13.5t64.5 33t45 40t28.5 33.5t7 13z" />
<glyph unicode="A" horiz-adv-x="1335" d="M1141 0l-211 541h-559l-236 -541h-92l616 1425h74l559 -1425h-151zM395 604h512l-241 619z" />
<glyph unicode="B" horiz-adv-x="1140" d="M948 1040q0 -106 -57 -186t-160 -113q129 -25 218 -117t89 -227q0 -201 -126 -299t-406 -98h-356v1401h317q225 0 353 -80t128 -281zM803 1040q0 96 -31 159t-88 91.5t-115.5 38.5t-140.5 10h-137v-571h241q271 0 271 272zM291 61h178q227 0 325.5 71t98.5 265 q0 154 -102.5 232t-255.5 78h-244v-646z" />
<glyph unicode="C" horiz-adv-x="1277" d="M754 1430q111 0 211 -30t146 -56.5t65 -45.5v-100q-53 66 -159 118t-259 52q-100 0 -187.5 -36t-162 -110.5t-117.5 -206.5t-43 -308q0 -330 140 -502t360 -172q82 0 156.5 17.5t122.5 41t88 52t57.5 46t23.5 25.5v-98q-53 -53 -165.5 -99.5t-287.5 -46.5 q-168 0 -294.5 61.5t-200.5 167t-110 233.5t-36 274q0 143 38 270t114 229.5t205 163t295 60.5z" />
<glyph unicode="D" horiz-adv-x="1411" d="M625 1401q176 0 311 -57.5t215 -155.5t119 -222t39 -268q0 -305 -165 -501.5t-509 -196.5h-485v1401h475zM291 61h303q260 0 414.5 156t154.5 481q0 176 -45 305.5t-127 200t-178 103t-213 32.5h-309v-1278z" />
<glyph unicode="E" horiz-adv-x="974" d="M877 1339h-586v-573h452v-61h-452v-644h586v-61h-727v1401h727v-62z" />
<glyph unicode="F" horiz-adv-x="944" d="M877 1339h-586v-573h452v-61h-452v-705h-141v1401h727v-62z" />
<glyph unicode="G" horiz-adv-x="1318" d="M1196 623v-529q-43 -45 -169 -84t-282 -39q-168 0 -294.5 60.5t-200.5 166t-111 232.5t-37 272q0 143 38 270.5t114 232t205 165t297 60.5q113 0 213 -29t146 -55.5t61 -45.5v-100q-150 168 -426 168q-96 0 -181.5 -37t-159 -111.5t-117.5 -207.5t-44 -310 q0 -328 141 -498.5t363 -170.5q174 0 301 76v514h143z" />
<glyph unicode="H" horiz-adv-x="1370" d="M1079 1401h142v-1401h-142v700h-788v-700h-141v1401h141v-639h788v639z" />
<glyph unicode="I" horiz-adv-x="481" d="M311 1401v-1401h-141v1401h141z" />
<glyph unicode="J" horiz-adv-x="481" d="M170 139v1262h141v-1149q0 -203 -50 -289t-181 -129q-37 -10 -80 -16t-70 -6h-24l-8 43q80 6 135 28q137 55 137 256z" />
<glyph unicode="K" horiz-adv-x="1144" d="M1034 1401l-547 -629l623 -772h-160l-549 674l-110 -129v-545h-141v1401h141v-723l635 723h108z" />
<glyph unicode="L" horiz-adv-x="987" d="M291 70h649v-70h-790v1401h141v-1331z" />
<glyph unicode="M" horiz-adv-x="1675" d="M1602 0h-142l-188 1151l-434 -1151h-76l-420 1153l-178 -1153h-90l221 1401h104l430 -1182l447 1182h92z" />
<glyph unicode="N" horiz-adv-x="1376" d="M1227 1401v-1401h-94l-900 1210v-1210h-83v1401h112l881 -1188v1188h84z" />
<glyph unicode="O" horiz-adv-x="1474" d="M737 1430q635 0 635 -730q0 -150 -31.5 -273.5t-101.5 -229t-199 -166t-307 -60.5q-631 0 -631 729q0 119 17.5 220.5t62.5 197.5t115 163t182.5 108t257.5 41zM731 33q225 0 360.5 156.5t135.5 510.5q0 668 -484 668q-225 0 -360 -162t-135 -506q0 -340 136 -503.5 t347 -163.5z" />
<glyph unicode="P" horiz-adv-x="1046" d="M457 1401q287 0 401.5 -102.5t114.5 -315.5q0 -176 -121 -287.5t-363 -111.5h-198v-584h-141v1401h307zM465 645q174 0 268 87t94 251q0 195 -85 275.5t-267 80.5h-184v-694h174z" />
<glyph unicode="Q" horiz-adv-x="1474" d="M737 1430q635 0 635 -732q0 -164 -37 -296t-132 -241.5t-245 -154.5l359 -24v-103l-680 98q-535 55 -535 721q0 119 17.5 220.5t62.5 197.5t115 164t182.5 109t257.5 41zM731 33q225 0 360.5 155.5t135.5 509.5q0 670 -484 670q-225 0 -360 -163t-135 -507 q0 -342 135 -503.5t348 -161.5z" />
<glyph unicode="R" horiz-adv-x="1120" d="M905 0l-356 588q-29 -4 -60 -4h-198v-584h-141v1401h307q287 0 401.5 -102.5t114.5 -315.5q0 -131 -74 -231.5t-215 -143.5l375 -608h-154zM465 645q174 0 268 87t94 251q0 195 -85 275.5t-267 80.5h-184v-694h174z" />
<glyph unicode="S" horiz-adv-x="1097" d="M514 33q143 0 250.5 84t107.5 207q0 119 -73.5 189.5t-274.5 174.5q-80 41 -123 65.5t-102 66.5t-90 80t-53.5 91t-22.5 115q0 158 124 241t302 83q238 0 383 -111l12 -10v-95l-17 16.5t-49 37t-80 47t-108.5 37t-136.5 16.5q-117 0 -213 -57.5t-96 -163.5 q0 -49 19.5 -88t72.5 -80t96 -66.5t140 -76.5l53 -29q203 -111 287 -203t84 -242q0 -158 -136.5 -274.5t-355.5 -116.5q-242 0 -408 117l-14 10v101q57 -57 170 -111.5t252 -54.5z" />
<glyph unicode="T" horiz-adv-x="1222" d="M1186 1401v-62h-504v-1339h-141v1339h-504v62h1149z" />
<glyph unicode="U" horiz-adv-x="1351" d="M1208 1401v-803q0 -150 -20.5 -253t-73.5 -193.5t-161.5 -135.5t-270.5 -45q-135 0 -231.5 29t-155.5 79t-93 132t-46.5 171t-12.5 212v807h142v-871q0 -285 100 -391t293 -106q94 0 165.5 19.5t138.5 71.5t102.5 159.5t35.5 265.5v852h88z" />
<glyph unicode="V" horiz-adv-x="1300" d="M1176 1401h92l-590 -1401h-94l-551 1401h151l478 -1208z" />
<glyph unicode="W" horiz-adv-x="2009" d="M1876 1401h90l-483 -1401h-92l-416 1171l-387 -1171h-96l-449 1401h145l379 -1190l394 1190h81l424 -1192z" />
<glyph unicode="X" horiz-adv-x="1304" d="M1241 1401l-522 -686l516 -715h-168l-436 606l-455 -606h-113l515 682l-498 719h162l428 -613l460 613h111z" />
<glyph unicode="Y" horiz-adv-x="1187" d="M1135 1401l-480 -791v-610h-141v602l-461 799h160l397 -705l424 705h101z" />
<glyph unicode="Z" horiz-adv-x="1200" d="M252 61h870v-61h-1044v49l872 1290h-798v62h968v-49z" />
<glyph unicode="[" horiz-adv-x="636" d="M289 1569v-1911h207v-68h-324v2048h324v-69h-207z" />
<glyph unicode="\" horiz-adv-x="958" d="M872 -242l-909 1807h107l905 -1807h-103z" />
<glyph unicode="]" horiz-adv-x="636" d="M317 -342v1911h-206v69h323v-2048h-323v68h206z" />
<glyph unicode="^" horiz-adv-x="1200" d="M291 801h-117l375 512h94l383 -512h-125l-305 409z" />
<glyph unicode="_" horiz-adv-x="1079" d="M1065 -299h-1051v90h1051v-90z" />
<glyph unicode="`" horiz-adv-x="399" d="M330 1190h-80l-203 211h135z" />
<glyph unicode="a" horiz-adv-x="1054" d="M791 637v143q0 242 -238 242q-100 0 -188.5 -34t-126.5 -66l-37 -33v90q14 12 41.5 28.5t119 45t191.5 28.5q215 0 292 -95t77 -253v-733h-82l-29 125q-127 -143 -336 -143q-166 0 -271.5 79.5t-105.5 249.5q0 326 453 326h240zM791 193v382h-193q-57 0 -98 -3t-93.5 -18 t-86 -43t-57 -80t-23.5 -124q0 -133 69.5 -198.5t190.5 -65.5q166 0 278 133z" />
<glyph unicode="b" horiz-adv-x="1132" d="M225 0h-82v1401h131v-451q4 6 12.5 14.5t37 31t60.5 40t83 31.5t106 14q231 0 346 -140t115 -406q0 -264 -119.5 -408.5t-351.5 -144.5q-90 0 -167 35.5t-109 72.5l-33 35zM274 860v-663q111 -156 289 -156q160 0 245 111.5t85 384.5q0 485 -328 485q-55 0 -105 -16.5 t-83 -40t-57.5 -48t-34.5 -40.5z" />
<glyph unicode="c" horiz-adv-x="980" d="M584 1081q100 0 183 -28.5t114 -57.5l32 -28v-93l-8 9l-14 18q-8 10 -24.5 23.5t-35 27t-45 26.5t-55.5 22.5t-66.5 15.5t-78.5 6q-346 0 -346 -492q0 -248 91 -368.5t257 -120.5q98 0 179 31.5t114 62.5l30 33v-86q-12 -10 -35.5 -27.5t-108.5 -45t-183 -27.5 q-109 0 -194 30.5t-139 81.5t-89 123t-49.5 148.5t-14.5 164.5q0 115 24.5 209.5t78 173t151 123.5t232.5 45z" />
<glyph unicode="d" horiz-adv-x="1132" d="M989 0h-82l-28 125q-4 -6 -12.5 -15.5t-38 -34t-63.5 -44t-89 -34.5t-115 -15q-229 0 -346 143t-117 410q0 547 461 546q86 0 161 -32.5t107 -65.5l31 -33v451h131v-1401zM858 197v661l-11 18q-7 11 -34 39.5t-57.5 50t-81.5 39t-109 17.5q-158 0 -241.5 -112.5 t-83.5 -372.5q0 -272 84 -384t243 -112q33 0 66 6t57.5 15.5t48 23.5t40 26.5t31.5 28.5l24 26q8 9 16 19z" />
<glyph unicode="e" horiz-adv-x="1099" d="M1001 530h-761q0 -260 94 -374.5t244 -114.5q109 0 199.5 37t119.5 61.5t45 44.5v-86q-12 -12 -36.5 -31.5t-120 -52t-212.5 -32.5q-233 0 -354 146t-121 415q0 102 22.5 191t74 170t148.5 129t230 48q127 0 215.5 -42t132.5 -117.5t62 -159.5t18 -191v-41zM573 1022 q-156 0 -243.5 -120t-87.5 -310h618q0 205 -59.5 317.5t-227.5 112.5z" />
<glyph unicode="f" horiz-adv-x="604" d="M281 1063h192v-62h-192v-1001h-131v1083q0 160 68.5 239t246.5 79h170v-62h-150q-205 0 -204 -211v-65z" />
<glyph unicode="g" horiz-adv-x="1132" d="M907 1063h82v-1006q0 -242 -106.5 -356.5t-319.5 -114.5q-96 0 -181 27t-124 51l-37 27v92q14 -14 43 -36.5t118 -60.5t181 -38q295 0 295 334v127l-14 -15q-12 -12 -27.5 -24.5t-42 -28.5t-55.5 -28.5t-72 -21.5t-88 -9q-231 0 -346 143t-115 405q0 260 114 405.5 t349 145.5q94 0 171 -35.5t108 -70.5l30 -37zM565 41q63 0 119.5 19.5t94.5 53t51.5 48t25.5 33.5l2 2v663l-11 18q-7 11 -33 38.5t-57.5 49t-82.5 39t-109 17.5q-326 0 -325 -490q0 -279 85.5 -385t239.5 -106z" />
<glyph unicode="h" horiz-adv-x="1118" d="M985 0h-131v659q0 360 -270 363h-5q-193 0 -303 -164l-2 -2v-856h-131v1401h131v-449q12 14 36 36t106 57.5t174 35.5q199 0 297 -105.5t98 -295.5v-680z" />
<glyph unicode="i" horiz-adv-x="458" d="M295 1063v-1063h-131v1063h131zM295 1401v-158h-131v158h131z" />
<glyph unicode="j" horiz-adv-x="458" d="M295 1401v-158h-131v158h131zM164 -76v1139h131v-1028q0 -190 -59.5 -277.5t-200.5 -138.5q-72 -27 -119 -31l-16 41q43 14 106 41q158 72 158 254z" />
<glyph unicode="k" horiz-adv-x="966" d="M872 1063l-378 -408l454 -655h-147l-391 565l-136 -143v-422h-131v1401h131v-866l496 528h102z" />
<glyph unicode="l" horiz-adv-x="458" d="M295 1401v-1401h-131v1401h131z" />
<glyph unicode="m" horiz-adv-x="1746" d="M1255 1081q195 0 277 -100t82 -285v-696h-131v709q0 156 -55.5 234.5t-184.5 78.5q-170 0 -293 -145l-16 -21v-856h-131v739q0 147 -49 215t-176 68q-86 0 -162 -39t-109 -78l-33 -39v-866h-131v1063h82l31 -129q147 147 338 147q242 0 309 -168q147 168 352 168z" />
<glyph unicode="n" horiz-adv-x="1118" d="M985 0h-131v680q0 342 -268 342q-31 0 -61.5 -5t-56.5 -13.5t-49.5 -19.5t-41.5 -25l-35 -24q-16 -11 -28.5 -23.5t-19.5 -20.5t-13 -14l-7 -9v-868h-131v1063h82l29 -129q2 0 16.5 14.5t31.5 29.5t49 34.5t65 34t81 24.5t97 10q391 0 391 -389v-692z" />
<glyph unicode="o" horiz-adv-x="1163" d="M582 1081q137 0 234 -45t149.5 -126t76 -173t23.5 -205q0 -111 -24.5 -205t-79 -173.5t-151.5 -125.5t-230 -46q-109 0 -193 30.5t-138 81.5t-88 124t-48.5 149.5t-14.5 164.5q0 111 24.5 204t78 174t151 126t230.5 45zM578 41q346 0 346 491q0 266 -89.5 378t-250.5 112 q-158 0 -251 -117t-93 -373q0 -254 93 -372.5t245 -118.5z" />
<glyph unicode="p" horiz-adv-x="1132" d="M143 1063h82l31 -133l8 8q8 10 17.5 20.5t26 24.5t34.5 27.5t44 27t53.5 22.5t63.5 15t75 6q227 0 341.5 -143t114.5 -401t-111.5 -406.5t-347.5 -148.5q-90 0 -164.5 31.5t-105.5 62.5l-31 30v-518h-131v1475zM573 1022q-174 0 -284 -143l-15 -21v-661l12 -17 q7 -10 33.5 -37.5t58.5 -48t84 -37t109 -16.5q158 0 241 113.5t83 380.5q0 487 -322 487z" />
<glyph unicode="q" horiz-adv-x="1132" d="M907 1063h82v-1475h-131v518q-12 -14 -33.5 -34.5t-101.5 -55t-170 -34.5q-233 0 -344 146t-111 404.5t115 403.5t340 145q51 0 97 -10t79 -25.5t61.5 -36t44.5 -34.5l29 -29l13 -16zM559 1022q-319 0 -319 -492q0 -266 80.5 -377.5t236.5 -111.5q182 0 287 135l14 21 v661l-12 17.5t-36 40t-59.5 50t-84 39t-107.5 17.5z" />
<glyph unicode="r" horiz-adv-x="712" d="M274 860v-860h-131v1063h82l31 -137q115 143 272 143q41 0 72 -4t41 -8l10 -2v-101q-53 35 -127 35q-49 0 -93 -13t-71.5 -31.5t-48 -38t-28.5 -34.5z" />
<glyph unicode="s" horiz-adv-x="892" d="M420 41q113 0 186.5 59.5t73.5 151.5q0 45 -17.5 81t-55.5 66.5t-72 50.5l-95 50q-84 45 -126 69.5t-93 66.5t-71.5 89t-20.5 109q0 121 90 184t234 63q86 0 161.5 -22.5t106.5 -44.5l33 -23v-88l-40 33q-26 20 -104 53t-155 33q-88 0 -153.5 -41t-65.5 -121q0 -25 6 -46 t22.5 -41.5t28.5 -34t43 -33t47 -28.5t58 -30.5t61 -32.5q156 -82 223.5 -151.5t67.5 -190t-98.5 -205.5t-274.5 -85q-94 0 -175 24.5t-114 48.5l-33 25v92q132 -131 322 -131z" />
<glyph unicode="t" horiz-adv-x="653" d="M467 1001h-193v-716q0 -223 205 -224h150v-61h-170q-178 0 -247 79t-69 238v891h131v-145h193v-62z" />
<glyph unicode="u" horiz-adv-x="1128" d="M143 1063h131v-682q0 -340 271 -340q37 0 71.5 7t62.5 17.5t52.5 24.5t43 28.5t33.5 30t24.5 26.5t15.5 20l6 8v860h131v-1063h-82l-29 129l-18 -18q-18 -20 -44 -39t-63.5 -41.5t-93 -35.5t-118.5 -13q-197 0 -295.5 103t-98.5 296v682z" />
<glyph unicode="v" horiz-adv-x="1009" d="M881 1063h84l-418 -1063h-90l-412 1063h135l348 -897z" />
<glyph unicode="w" horiz-adv-x="1589" d="M1473 1063h88l-416 -1063h-86l-285 866l-301 -866h-92l-352 1063h135l289 -881l305 881h88l284 -879z" />
<glyph unicode="x" horiz-adv-x="1011" d="M967 1063l-398 -518l389 -545h-153l-318 449l-342 -449h-100l397 510l-387 553h154l313 -457l352 457h93z" />
<glyph unicode="y" horiz-adv-x="1011" d="M45 1063h137l346 -895l351 895h88l-586 -1475h-86l166 412z" />
<glyph unicode="z" horiz-adv-x="962" d="M911 1014l-700 -953h674v-61h-834v47l703 954h-648v62h803z" />
<glyph unicode="{" horiz-adv-x="636" d="M360 756q0 -104 -90 -144q88 -41 88 -163v-685q0 -55 27 -80.5t88 -25.5h53v-68h-82q-102 0 -152 42t-50 137v696q0 106 -95 106h-61v80h61q94 0 95 119v684q0 184 207 184h79v-69h-53q-63 0 -89 -29t-26 -86v-698z" />
<glyph unicode="|" horiz-adv-x="544" d="M328 -410h-119v2048h119v-2048z" />
<glyph unicode="}" horiz-adv-x="636" d="M250 756v698q0 57 -25.5 86t-89.5 29h-53v69h80q207 0 207 -184v-684q0 -119 94 -119h61v-80h-61q-94 0 -94 -106v-696q0 -94 -50.5 -136.5t-152.5 -42.5h-82v68h53q61 0 88 25.5t27 80.5v685q0 123 88 163q-90 40 -90 144z" />
<glyph unicode="~" horiz-adv-x="1075" d="M709 545q152 0 227 96v-113q-20 -23 -79.5 -48t-145.5 -27q-98 0 -205 57t-172 57q-61 0 -116.5 -21.5t-79 -41t-36.5 -33.5v109q23 27 83.5 54.5t146.5 27.5q94 0 201.5 -58.5t175.5 -58.5z" />
<glyph unicode="&#xa1;" horiz-adv-x="409" d="M129 -338l14 1124h119l17 -1124h-150zM272 1063v-129h-137v129h137z" />
<glyph unicode="&#xa2;" horiz-adv-x="1032" d="M530 -174v158q-231 16 -332.5 167.5t-101.5 378.5q0 109 21.5 200t70 169t135.5 126t207 56v158h88v-158q90 -6 163 -35.5t102 -58.5l28 -26v-103l-8 10q-8 12 -20.5 25.5t-32 32t-46 35t-58 31t-74.5 22.5t-88 8q-346 0 -346 -492q0 -246 91 -366.5t257 -120.5 q98 0 179 31.5t112 64.5l32 31v-88q-10 -10 -31.5 -24.5t-97 -41t-162.5 -32.5v-158h-88z" />
<glyph unicode="&#xa3;" horiz-adv-x="1120" d="M821 647h-342q0 -2 2 -20.5t3 -50t1 -66.5q0 -78 -21.5 -152.5t-52 -125t-61.5 -90.5t-51 -60l-23 -19h723v-63h-907v47q152 106 207 226t55 280l-8 94h-174v76h162q-4 27 -22.5 97.5t-31 136t-12.5 120.5q0 156 94.5 256.5t301.5 100.5q98 0 182 -29t119 -57l34 -31v-98 q-125 156 -323 155q-133 0 -201.5 -73.5t-68.5 -210.5q0 -51 12 -124t29.5 -150t19.5 -93h354v-76z" />
<glyph unicode="&#xa4;" horiz-adv-x="1120" d="M106 145l107 105q-88 115 -88 293q0 174 88 288l-107 107l74 76l111 -113q98 70 260 70q160 0 260 -72l113 115l73 -76l-110 -109q82 -115 82 -286q0 -176 -84 -287l112 -111l-73 -73l-115 114q-96 -72 -260 -71.5t-260 67.5q-98 -98 -109 -110zM547 190q131 0 213 83 t82 270q0 350 -291 350q-297 0 -297 -350q0 -190 83 -271.5t210 -81.5z" />
<glyph unicode="&#xa5;" horiz-adv-x="1165" d="M168 770v74h186l-321 557h160l397 -705l424 705h100l-340 -557h207v-74h-250l-94 -154h344v-73h-346v-543h-141v543h-326v73h317l-88 154h-229z" />
<glyph unicode="&#xa6;" horiz-adv-x="401" d="M252 662h-119v976h119v-976zM252 -410h-119v977h119v-977z" />
<glyph unicode="&#xa7;" horiz-adv-x="995" d="M461 -348q127 0 214 68.5t87 173.5q0 106 -70.5 176.5t-222.5 142.5q-166 80 -251 154.5t-85 189.5q0 119 80 188.5t207 83.5q-141 72 -214 145t-73 179q0 133 102.5 206t256.5 73q102 0 187 -26t120 -50l35 -27v-96q-14 16 -42 38.5t-115 60.5t-177 38q-104 0 -180 -43 t-76 -139q0 -45 17.5 -81t61.5 -68.5t79.5 -52t113.5 -56.5q199 -100 281 -189.5t82 -222.5q0 -86 -50.5 -160.5t-140.5 -119.5q115 -76 153 -149t38 -167q0 -133 -116 -231.5t-302 -98.5q-98 0 -188.5 28t-131.5 56l-41 29v98q49 -49 149.5 -100t211.5 -51zM762 489 q0 90 -55.5 157t-169.5 126q-109 12 -201 -31t-92 -147q0 -47 19.5 -85t62.5 -68.5t85 -53t109 -55.5l23 -10l75 -41q66 31 105 85.5t39 122.5z" />
<glyph unicode="&#xa8;" horiz-adv-x="743" d="M145 1264v137h123v-137h-123zM455 1264v137h123v-137h-123z" />
<glyph unicode="&#xa9;" horiz-adv-x="1925" d="M199 700q0 299 219 513t512 214t512 -214t219 -513q0 -303 -213 -515t-518 -212t-518 212t-213 515zM291 700q0 -266 187.5 -454.5t451.5 -188.5t451.5 188.5t187.5 454.5q0 262 -192.5 452.5t-446.5 190.5q-252 0 -445.5 -190.5t-193.5 -452.5zM958 1124q168 0 252 -84 l-2 -73l-8 10q-10 10 -18 17l-25 21q-16 13 -34.5 21t-43 17.5t-56.5 14.5t-67 5q-111 0 -190.5 -92t-79.5 -289q0 -184 77 -278.5t195 -94.5q72 0 137.5 28t90 49.5t37.5 35.5v-74q-31 -31 -105 -61.5t-162 -30.5q-190 0 -292.5 125t-102.5 301q0 180 102 306t295 126z" />
<glyph unicode="&#xaa;" horiz-adv-x="712" d="M510 1126v86q0 152 -143 152q-61 0 -116.5 -20.5t-82.5 -40.5l-25 -19v55q78 61 224 62q135 0 184 -59.5t49 -159.5v-461h-57l-19 70q-76 -82 -207 -82q-104 0 -171.5 52t-67.5 159q0 207 276 206h156zM510 836v247h-113q-61 0 -102 -7t-80 -46t-39 -110q0 -84 43 -127 t113 -43q47 0 92 21.5t65 43.5z" />
<glyph unicode="&#xab;" horiz-adv-x="872" d="M57 575v31l320 375h121l-332 -387l330 -389h-123zM328 575v31l319 375h121l-334 -387l332 -389h-125z" />
<glyph unicode="&#xac;" horiz-adv-x="1105" d="M999 481h-92v512h-841v70h933v-582z" />
<glyph unicode="&#xad;" horiz-adv-x="743" d="M117 721h510v-70h-510v70z" />
<glyph unicode="&#xae;" horiz-adv-x="1015" d="M92 1022q0 168 122 288t292 120t292 -120t122 -288t-122 -289t-292 -121t-292 121t-122 289zM162 1022q0 -145 100 -246.5t243.5 -101.5t245 101.5t101.5 246.5q0 143 -101.5 245.5t-245 102.5t-243.5 -101.5t-100 -246.5zM631 786l-119 203h-82v-203h-59v494h112 q100 0 140.5 -36t40.5 -114q0 -98 -97 -131l129 -213h-65zM483 1020q117 0 117 110q0 63 -27.5 91t-87.5 28h-55v-229h53z" />
<glyph unicode="&#xaf;" horiz-adv-x="733" d="M651 1333h-579v68h579v-68z" />
<glyph unicode="&#xb0;" horiz-adv-x="841" d="M172 1180q0 92 67.5 157.5t162 65.5t161 -65.5t66.5 -157.5q0 -94 -66.5 -160t-161 -66t-162 66t-67.5 160zM254 1179.5q0 -65.5 42 -109.5t105.5 -44t106.5 44t43 109.5t-43 109.5t-106.5 44t-105.5 -44t-42 -109.5z" />
<glyph unicode="&#xb1;" horiz-adv-x="1247" d="M1028 0h-813v90h813v-90zM674 995v-342h348v-104h-348v-346h-113v346h-346v104h346v342h113z" />
<glyph unicode="&#xb2;" horiz-adv-x="692" d="M197 760h362v-43h-473v37l240 258q70 74 100.5 125t30.5 108q0 68 -40 104.5t-104 36.5q-61 0 -113.5 -31.5t-66.5 -51.5v57q70 63 178 63q125 0 177.5 -56t52.5 -128q0 -63 -31 -117.5t-96 -124.5z" />
<glyph unicode="&#xb3;" horiz-adv-x="679" d="M213 1100h61q57 0 104.5 35.5t47.5 117.5q0 135 -143 136q-96 0 -160 -64v47q61 51 166 51q113 0 166 -49t53 -116.5t-43 -116.5t-94 -60q59 -10 109 -61t50 -127q0 -72 -62 -135.5t-189 -63.5q-53 0 -101.5 15.5t-68.5 31.5l-21 17v51q96 -78 184 -78q82 0 126 43 t44 115q0 70 -40 119t-119 49h-70v43z" />
<glyph unicode="&#xb4;" horiz-adv-x="411" d="M133 1190h-82l148 211h137z" />
<glyph unicode="&#xb5;" horiz-adv-x="1142" d="M147 1063h132v-686q0 -166 75.5 -251t196.5 -85q47 0 92 11t75 27.5t57.5 39t43 38t27.5 31.5l12 17v858h131v-1063h-82l-28 129q-129 -147 -332 -147q-82 0 -147.5 25.5t-92.5 51.5l-24 27v-459h-136v1436z" />
<glyph unicode="&#xb6;" horiz-adv-x="1099" d="M614 1401h320v-1401h-125v582h-98v-582h-125v582q-217 2 -342 118.5t-125 284.5q0 98 31.5 174t81 121t118 72.5t131.5 38t133 10.5zM274 985q0 -166 85 -252t227 -94v700q-143 -2 -227.5 -89t-84.5 -265zM809 1341h-98v-702h98v702z" />
<glyph unicode="&#xb7;" horiz-adv-x="460" d="M303 760v-146h-145v146h145z" />
<glyph unicode="&#xb8;" horiz-adv-x="669" d="M256 20h70l-4 -92q72 -2 133 -43t61 -120.5t-56.5 -129t-158.5 -49.5q-88 0 -158 35v70q74 -41 150 -41q68 0 103.5 29.5t35.5 78.5q0 35 -12 57.5t-41 35t-56.5 18.5t-80.5 12z" />
<glyph unicode="&#xb9;" horiz-adv-x="555" d="M244 1401h73v-684h-88v631l-112 -45v47z" />
<glyph unicode="&#xba;" horiz-adv-x="774" d="M385 1403q311 0 311 -344q0 -154 -73.5 -252t-237.5 -98q-307 0 -307 350q0 150 72.5 247t234.5 97zM383 745q215 0 215 314q0 309 -211 309q-96 0 -154.5 -74.5t-58.5 -234.5t58.5 -237t150.5 -77z" />
<glyph unicode="&#xbb;" horiz-adv-x="882" d="M807 606v-31l-313 -370h-123l329 389l-331 387h118zM539 606v-31l-316 -370h-123l330 389l-332 387h121z" />
<glyph unicode="&#xbc;" horiz-adv-x="1427" d="M1151 1401l-875 -1401h-79l870 1401h84zM244 1401h73v-684h-88v631l-112 -45v47zM1356 231v-38h-99v-193h-86v193h-337v30l346 469h77v-461h99zM903 231h268v367z" />
<glyph unicode="&#xbd;" horiz-adv-x="1525" d="M1151 1401l-875 -1401h-79l870 1401h84zM244 1401h73v-684h-88v631l-112 -45v47zM1030 43h363v-43h-473v37l239 258q70 74 100.5 125t30.5 108q0 68 -40 105t-103 37q-61 0 -113.5 -32t-66.5 -52v57q70 63 178 64q125 0 177 -56.5t52 -128.5q0 -63 -30.5 -117.5 t-96.5 -123.5z" />
<glyph unicode="&#xbe;" horiz-adv-x="1550" d="M213 1100h61q57 0 104.5 35.5t47.5 117.5q0 135 -143 136q-96 0 -160 -64v47q61 51 166 51q113 0 166 -49t53 -116.5t-43 -116.5t-94 -60q59 -10 109 -61t50 -127q0 -72 -62 -135.5t-189 -63.5q-53 0 -101.5 15.5t-68.5 31.5l-21 17v51q96 -78 184 -78q82 0 126 43 t44 115q0 70 -40 119t-119 49h-70v43zM1274 1401l-875 -1401h-80l871 1401h84zM1479 231v-38h-99v-193h-86v193h-338v30l347 469h77v-461h99zM1026 231h268v367z" />
<glyph unicode="&#xbf;" horiz-adv-x="1054" d="M563 907h121v-94q0 -180 -137 -278q-31 -23 -85 -59l-81 -54q-27 -18 -63.5 -52t-54 -64t-31 -75t-13.5 -100q0 -145 95.5 -229t228.5 -84q109 0 205 38t137 74l43 39v-92q-14 -14 -43 -33.5t-131.5 -53.5t-218.5 -34q-190 0 -315.5 104.5t-125.5 276.5q0 86 21.5 152.5 t61.5 113t85 80t105 72.5l30 18q96 63 130 107.5t34 132.5zM692 1186v-135h-137v135h137z" />
<glyph unicode="&#xc0;" horiz-adv-x="1335" d="M1141 0l-211 541h-559l-236 -541h-92l616 1425h74l559 -1425h-151zM395 604h512l-241 619zM721 1561h-80l-203 211h137z" />
<glyph unicode="&#xc1;" horiz-adv-x="1335" d="M1141 0l-211 541h-559l-236 -541h-92l616 1425h74l559 -1425h-151zM395 604h512l-241 619zM772 1561h-82l148 211h139z" />
<glyph unicode="&#xc2;" horiz-adv-x="1335" d="M1141 0l-211 541h-559l-236 -541h-92l616 1425h74l559 -1425h-151zM395 604h512l-241 619zM940 1561h-115l-137 139l-139 -139h-109l219 211h58z" />
<glyph unicode="&#xc3;" horiz-adv-x="1335" d="M940 1772h82q-10 -90 -60.5 -139.5t-127.5 -49.5q-68 0 -154 58.5t-127 58.5q-100 0 -115 -113h-86q12 88 65.5 137.5t133.5 49.5q72 0 157 -58.5t121 -58.5q47 0 77 35t34 80zM1141 0l-211 541h-559l-236 -541h-92l616 1425h74l559 -1425h-151zM395 604h512l-241 619z " />
<glyph unicode="&#xc4;" horiz-adv-x="1335" d="M1141 0l-211 541h-559l-236 -541h-92l616 1425h74l559 -1425h-151zM395 604h512l-241 619zM453 1561v141h127v-141h-127zM809 1561v141h127v-141h-127z" />
<glyph unicode="&#xc5;" horiz-adv-x="1335" d="M539 1716.5q0 63.5 45 107.5t108 44q66 0 110 -44t44 -108q0 -66 -45 -110.5t-108.5 -44.5t-108.5 46t-45 109.5zM600 1716q0 -39 26.5 -66.5t65.5 -27.5t65.5 27.5t26.5 66.5q0 37 -26.5 64.5t-65.5 27.5t-65.5 -27.5t-26.5 -64.5zM1141 0l-211 541h-559l-236 -541h-92 l616 1425h74l559 -1425h-151zM395 604h512l-241 619z" />
<glyph unicode="&#xc6;" horiz-adv-x="1703" d="M1575 1339h-586v-612h453v-61h-453v-605h586v-61h-725v666h-332l-397 -666h-94l829 1401h719v-62zM553 727h297v506z" />
<glyph unicode="&#xc7;" horiz-adv-x="1277" d="M754 1430q111 0 211 -30t146 -56.5t65 -45.5v-100q-53 66 -159 118t-259 52q-100 0 -187.5 -36t-162 -110.5t-117.5 -206.5t-43 -308q0 -330 140 -502t360 -172q82 0 156.5 17.5t122.5 41t88 52t57.5 46t23.5 25.5v-98q-53 -53 -164.5 -98.5t-283.5 -47.5v-43 q72 -2 133 -43t61 -120.5t-56.5 -129t-158.5 -49.5q-88 0 -158 35v70q74 -41 148 -41q68 0 104.5 29.5t36.5 78.5q0 35 -12 57.5t-41 35t-56.5 18.5t-80.5 12l8 94q-150 10 -263.5 76t-179 169.5t-98.5 226t-33 260.5q0 143 38 270t114 229.5t205 163t295 60.5z" />
<glyph unicode="&#xc8;" horiz-adv-x="974" d="M877 1339h-586v-573h452v-61h-452v-644h586v-61h-727v1401h727v-62zM535 1561h-82l-203 211h137z" />
<glyph unicode="&#xc9;" horiz-adv-x="974" d="M877 1339h-586v-573h452v-61h-452v-644h586v-61h-727v1401h727v-62zM430 1561h-82l148 211h139z" />
<glyph unicode="&#xca;" horiz-adv-x="974" d="M877 1339h-586v-573h452v-61h-452v-644h586v-61h-727v1401h727v-62zM768 1561h-115l-137 139l-139 -139h-109l219 211h58z" />
<glyph unicode="&#xcb;" horiz-adv-x="974" d="M877 1339h-586v-573h452v-61h-452v-644h586v-61h-727v1401h727v-62zM274 1561v139h127v-139h-127zM631 1561v139h127v-139h-127z" />
<glyph unicode="&#xcc;" horiz-adv-x="481" d="M311 1401v-1401h-141v1401h141zM279 1561h-82l-203 211h137z" />
<glyph unicode="&#xcd;" horiz-adv-x="481" d="M311 1401v-1401h-141v1401h141zM293 1561h-82l147 211h140z" />
<glyph unicode="&#xce;" horiz-adv-x="481" d="M311 1401v-1401h-141v1401h141zM489 1561h-112l-139 139l-138 -139h-110l219 211h57z" />
<glyph unicode="&#xcf;" horiz-adv-x="481" d="M311 1401v-1401h-141v1401h141zM-2 1561v141h127v-141h-127zM354 1561v141h127v-141h-127z" />
<glyph unicode="&#xd0;" horiz-adv-x="1503" d="M80 680v61h164v660h475q176 0 310 -57.5t214 -155.5t119 -222t39 -268q0 -115 -22.5 -216t-74 -190t-127 -153.5t-190.5 -101.5t-258 -37h-485v680h-164zM385 61h303q260 0 414.5 156t154.5 481q0 176 -46 305.5t-126.5 200t-177 103t-213.5 32.5h-309v-598h369v-61h-369 v-619z" />
<glyph unicode="&#xd1;" horiz-adv-x="1376" d="M1227 1401v-1401h-94l-900 1210v-1210h-83v1401h112l881 -1188v1188h84zM940 1772h82q-10 -90 -60.5 -139.5t-127.5 -49.5q-68 0 -154 58.5t-127 58.5q-100 0 -115 -113h-86q12 88 65.5 137.5t133.5 49.5q72 0 157 -58.5t121 -58.5q47 0 77 35t34 80z" />
<glyph unicode="&#xd2;" horiz-adv-x="1474" d="M737 1430q635 0 635 -730q0 -150 -31.5 -273.5t-101.5 -229t-199 -166t-307 -60.5q-631 0 -631 729q0 119 17.5 220.5t62.5 197.5t115 163t182.5 108t257.5 41zM731 33q225 0 360.5 156.5t135.5 510.5q0 668 -484 668q-225 0 -360 -162t-135 -506q0 -340 136 -503.5 t347 -163.5zM811 1561h-82l-203 211h138z" />
<glyph unicode="&#xd3;" horiz-adv-x="1474" d="M737 1430q635 0 635 -730q0 -150 -31.5 -273.5t-101.5 -229t-199 -166t-307 -60.5q-631 0 -631 729q0 119 17.5 220.5t62.5 197.5t115 163t182.5 108t257.5 41zM731 33q225 0 360.5 156.5t135.5 510.5q0 668 -484 668q-225 0 -360 -162t-135 -506q0 -340 136 -503.5 t347 -163.5zM752 1563h-82l147 211h139z" />
<glyph unicode="&#xd4;" horiz-adv-x="1474" d="M737 1430q635 0 635 -730q0 -150 -31.5 -273.5t-101.5 -229t-199 -166t-307 -60.5q-631 0 -631 729q0 119 17.5 220.5t62.5 197.5t115 163t182.5 108t257.5 41zM731 33q225 0 360.5 156.5t135.5 510.5q0 668 -484 668q-225 0 -360 -162t-135 -506q0 -340 136 -503.5 t347 -163.5zM983 1561h-115l-137 139l-139 -139h-109l219 211h58z" />
<glyph unicode="&#xd5;" horiz-adv-x="1474" d="M737 1430q635 0 635 -730q0 -150 -31.5 -273.5t-101.5 -229t-199 -166t-307 -60.5q-631 0 -631 729q0 119 17.5 220.5t62.5 197.5t115 163t182.5 108t257.5 41zM731 33q225 0 360.5 156.5t135.5 510.5q0 668 -484 668q-225 0 -360 -162t-135 -506q0 -340 136 -503.5 t347 -163.5zM993 1772h82q-8 -90 -59 -139.5t-129 -49.5q-68 0 -154 58.5t-127 58.5q-98 0 -114 -113h-86q12 88 66 137.5t134 49.5q70 0 155 -58.5t124 -58.5q47 0 76.5 35t31.5 80z" />
<glyph unicode="&#xd6;" horiz-adv-x="1474" d="M737 1430q635 0 635 -730q0 -150 -31.5 -273.5t-101.5 -229t-199 -166t-307 -60.5q-631 0 -631 729q0 119 17.5 220.5t62.5 197.5t115 163t182.5 108t257.5 41zM731 33q225 0 360.5 156.5t135.5 510.5q0 668 -484 668q-225 0 -360 -162t-135 -506q0 -340 136 -503.5 t347 -163.5zM498 1561v141h127v-141h-127zM852 1561v141h129v-141h-129z" />
<glyph unicode="&#xd7;" horiz-adv-x="1169" d="M899 809l-248 -248l242 -242l-72 -71l-241 241l-246 -245l-72 71l246 246l-252 252l72 72l252 -252l245 248z" />
<glyph unicode="&#xd8;" horiz-adv-x="1474" d="M737 1430q242 0 389 -109l60 80h88l-92 -123q190 -184 190 -578q0 -150 -31.5 -273.5t-101.5 -229t-199 -166t-307 -60.5q-266 0 -420 133l-75 -104h-82l108 150q-162 184 -162 550q0 119 17.5 220.5t62.5 197.5t115 163t182.5 108t257.5 41zM731 33q225 0 360.5 156.5 t135.5 510.5q0 322 -111 488l-733 -991q125 -164 348 -164zM248 700q0 -272 96 -442l727 987q-115 123 -328 123q-225 0 -360 -162t-135 -506z" />
<glyph unicode="&#xd9;" horiz-adv-x="1351" d="M758 1561h-82l-203 211h137zM1208 1401v-803q0 -150 -20.5 -253t-73.5 -193.5t-161.5 -135.5t-270.5 -45q-135 0 -231.5 29t-155.5 79t-93 132t-46.5 171t-12.5 212v807h142v-871q0 -285 100 -391t293 -106q94 0 165.5 19.5t138.5 71.5t102.5 159.5t35.5 265.5v852h88z " />
<glyph unicode="&#xda;" horiz-adv-x="1351" d="M741 1561h-82l148 211h139zM1208 1401v-803q0 -150 -20.5 -253t-73.5 -193.5t-161.5 -135.5t-270.5 -45q-135 0 -231.5 29t-155.5 79t-93 132t-46.5 171t-12.5 212v807h142v-871q0 -285 100 -391t293 -106q94 0 165.5 19.5t138.5 71.5t102.5 159.5t35.5 265.5v852h88z " />
<glyph unicode="&#xdb;" horiz-adv-x="1351" d="M946 1561h-115l-137 139l-139 -139h-109l218 211h59zM1208 1401v-803q0 -150 -20.5 -253t-73.5 -193.5t-161.5 -135.5t-270.5 -45q-135 0 -231.5 29t-155.5 79t-93 132t-46.5 171t-12.5 212v807h142v-871q0 -285 100 -391t293 -106q94 0 165.5 19.5t138.5 71.5 t102.5 159.5t35.5 265.5v852h88z" />
<glyph unicode="&#xdc;" horiz-adv-x="1351" d="M444 1561v141h127v-141h-127zM801 1561v141h127v-141h-127zM1208 1401v-803q0 -150 -20.5 -253t-73.5 -193.5t-161.5 -135.5t-270.5 -45q-135 0 -231.5 29t-155.5 79t-93 132t-46.5 171t-12.5 212v807h142v-871q0 -285 100 -391t293 -106q94 0 165.5 19.5t138.5 71.5 t102.5 159.5t35.5 265.5v852h88z" />
<glyph unicode="&#xdd;" horiz-adv-x="1187" d="M1135 1401l-480 -791v-610h-141v602l-461 799h160l397 -705l424 705h101zM594 1561h-82l147 211h140z" />
<glyph unicode="&#xde;" horiz-adv-x="1073" d="M295 1401v-285h82q297 0 447.5 -88t150.5 -330q0 -180 -133 -288.5t-389 -108.5h-158v-301h-145v1401h145zM414 356q195 0 299 76t104 266q0 199 -100.5 280t-292.5 81h-129v-703h119z" />
<glyph unicode="&#xdf;" horiz-adv-x="1112" d="M752 598q143 -76 201.5 -138.5t58.5 -180.5q0 -123 -92.5 -210t-257.5 -87q-139 0 -240 61q0 14 1 47t1 47q113 -92 233 -92q102 0 172 55.5t70 149.5q0 59 -30.5 104t-67.5 68.5t-113 62.5q-59 31 -86 47.5t-60.5 44t-47 61.5t-13.5 79q0 57 27 102t64 78l75 66 q37 33 63.5 86t26.5 120q0 76 -43 131.5t-145 55.5q-139 0 -203.5 -93.5t-64.5 -287.5v-975h-131v913q0 254 105 380t300 126q154 0 228.5 -69.5t74.5 -173.5q0 -55 -27.5 -106.5t-67.5 -89.5l-80 -73q-40 -35 -67.5 -73.5t-27.5 -77.5q0 -47 37 -79t127 -79z" />
<glyph unicode="&#xe0;" horiz-adv-x="1054" d="M625 1190h-82l-203 211h137zM791 637v143q0 242 -238 242q-100 0 -188.5 -34t-126.5 -66l-37 -33v90q14 12 41.5 28.5t119 45t191.5 28.5q215 0 292 -95t77 -253v-733h-82l-29 125q-127 -143 -336 -143q-166 0 -271.5 79.5t-105.5 249.5q0 326 453 326h240zM791 193v382 h-193q-57 0 -98 -3t-93.5 -18t-86 -43t-57 -80t-23.5 -124q0 -133 69.5 -198.5t190.5 -65.5q166 0 278 133z" />
<glyph unicode="&#xe1;" horiz-adv-x="1054" d="M549 1190h-82l147 211h138zM791 637v143q0 242 -238 242q-100 0 -188.5 -34t-126.5 -66l-37 -33v90q14 12 41.5 28.5t119 45t191.5 28.5q215 0 292 -95t77 -253v-733h-82l-29 125q-127 -143 -336 -143q-166 0 -271.5 79.5t-105.5 249.5q0 326 453 326h240zM791 193v382 h-193q-57 0 -98 -3t-93.5 -18t-86 -43t-57 -80t-23.5 -124q0 -133 69.5 -198.5t190.5 -65.5q166 0 278 133z" />
<glyph unicode="&#xe2;" horiz-adv-x="1054" d="M799 1190h-115l-139 139l-137 -139h-109l217 211h59zM791 637v143q0 242 -238 242q-100 0 -188.5 -34t-126.5 -66l-37 -33v90q14 12 41.5 28.5t119 45t191.5 28.5q215 0 292 -95t77 -253v-733h-82l-29 125q-127 -143 -336 -143q-166 0 -271.5 79.5t-105.5 249.5 q0 326 453 326h240zM791 193v382h-193q-57 0 -98 -3t-93.5 -18t-86 -43t-57 -80t-23.5 -124q0 -133 69.5 -198.5t190.5 -65.5q166 0 278 133z" />
<glyph unicode="&#xe3;" horiz-adv-x="1054" d="M791 1403h81q-10 -90 -60 -139.5t-128 -49.5q-66 0 -152 58.5t-129 58.5q-100 0 -114 -112h-86q12 88 65.5 137t132.5 49q72 0 157 -58.5t122 -58.5q47 0 77 35t34 80zM791 637v143q0 242 -238 242q-100 0 -188.5 -34t-126.5 -66l-37 -33v90q14 12 41.5 28.5t119 45 t191.5 28.5q215 0 292 -95t77 -253v-733h-82l-29 125q-127 -143 -336 -143q-166 0 -271.5 79.5t-105.5 249.5q0 326 453 326h240zM791 193v382h-193q-57 0 -98 -3t-93.5 -18t-86 -43t-57 -80t-23.5 -124q0 -133 69.5 -198.5t190.5 -65.5q166 0 278 133z" />
<glyph unicode="&#xe4;" horiz-adv-x="1054" d="M332 1264v137h121v-137h-121zM641 1264v137h121v-137h-121zM791 637v143q0 242 -238 242q-100 0 -188.5 -34t-126.5 -66l-37 -33v90q14 12 41.5 28.5t119 45t191.5 28.5q215 0 292 -95t77 -253v-733h-82l-29 125q-127 -143 -336 -143q-166 0 -271.5 79.5t-105.5 249.5 q0 326 453 326h240zM791 193v382h-193q-57 0 -98 -3t-93.5 -18t-86 -43t-57 -80t-23.5 -124q0 -133 69.5 -198.5t190.5 -65.5q166 0 278 133z" />
<glyph unicode="&#xe5;" horiz-adv-x="1054" d="M399 1341.5q0 63.5 44 108.5t109.5 45t110 -45t44.5 -108.5t-44.5 -108.5t-110 -45t-109.5 45t-44 108.5zM461 1341q0 -39 26.5 -65.5t65.5 -26.5t65.5 27t26.5 65q0 37 -26.5 65t-65.5 28t-65.5 -28t-26.5 -65zM791 637v143q0 242 -238 242q-100 0 -188.5 -34 t-126.5 -66l-37 -33v90q14 12 41.5 28.5t119 45t191.5 28.5q215 0 292 -95t77 -253v-733h-82l-29 125q-127 -143 -336 -143q-166 0 -271.5 79.5t-105.5 249.5q0 326 453 326h240zM791 193v382h-193q-57 0 -98 -3t-93.5 -18t-86 -43t-57 -80t-23.5 -124q0 -133 69.5 -198.5 t190.5 -65.5q166 0 278 133z" />
<glyph unicode="&#xe6;" horiz-adv-x="1792" d="M1694 553h-762q0 -512 338 -512q109 0 200 37t119.5 61.5t44.5 44.5v-86q-12 -12 -36.5 -31.5t-120 -52t-211.5 -32.5q-264 0 -385 188q-152 -188 -406 -188q-168 0 -272.5 74.5t-104.5 244.5q0 82 30 142.5t73 93t109.5 51t118.5 22.5t122 4h240v166q0 242 -238 242 q-100 0 -188.5 -34t-126.5 -66l-37 -33v90q14 12 41.5 28.5t119 45t191.5 28.5q268 0 340 -170q121 170 373 170q127 0 215 -42t132 -117.5t62.5 -159.5t18.5 -191v-18zM500 43q213 0 346 193q-55 125 -55 307v10h-193q-61 0 -98 -2t-92.5 -15.5t-87 -39t-56 -76.5 t-24.5 -123q0 -254 260 -254zM1266 1022q-150 0 -239 -113.5t-93 -294.5h618q-2 92 -14 159t-41 127.5t-87 91t-144 30.5z" />
<glyph unicode="&#xe7;" horiz-adv-x="980" d="M584 1081q100 0 183 -28.5t114 -57.5l32 -28v-93l-8 9l-14 18q-8 10 -24.5 23.5t-35 27t-45 26.5t-55.5 22.5t-66.5 15.5t-78.5 6q-346 0 -346 -492q0 -248 91 -368.5t257 -120.5q98 0 179 31.5t114 62.5l30 33v-86q-12 -10 -34.5 -26.5t-104.5 -44t-174 -29.5l-2 -54 q72 -2 133.5 -43t61.5 -120.5t-56.5 -129t-159.5 -49.5q-88 0 -157 35v70q74 -41 149 -41q68 0 104 29.5t36 78.5q0 35 -12.5 57.5t-41 35t-56.5 18.5t-81 12l10 103q-158 12 -257 95t-135 194.5t-36 256.5q0 115 24.5 209.5t78 173t151 123.5t232.5 45z" />
<glyph unicode="&#xe8;" horiz-adv-x="1099" d="M1001 530h-761q0 -260 94 -374.5t244 -114.5q109 0 199.5 37t119.5 61.5t45 44.5v-86q-12 -12 -36.5 -31.5t-120 -52t-212.5 -32.5q-233 0 -354 146t-121 415q0 102 22.5 191t74 170t148.5 129t230 48q127 0 215.5 -42t132.5 -117.5t62 -159.5t18 -191v-41zM573 1022 q-156 0 -243.5 -120t-87.5 -310h618q0 205 -59.5 317.5t-227.5 112.5zM647 1190h-82l-203 211h138z" />
<glyph unicode="&#xe9;" horiz-adv-x="1099" d="M1001 530h-761q0 -260 94 -374.5t244 -114.5q109 0 199.5 37t119.5 61.5t45 44.5v-86q-12 -12 -36.5 -31.5t-120 -52t-212.5 -32.5q-233 0 -354 146t-121 415q0 102 22.5 191t74 170t148.5 129t230 48q127 0 215.5 -42t132.5 -117.5t62 -159.5t18 -191v-41zM573 1022 q-156 0 -243.5 -120t-87.5 -310h618q0 205 -59.5 317.5t-227.5 112.5zM602 1190h-82l148 211h137z" />
<glyph unicode="&#xea;" horiz-adv-x="1099" d="M1001 530h-761q0 -260 94 -374.5t244 -114.5q109 0 199.5 37t119.5 61.5t45 44.5v-86q-12 -12 -36.5 -31.5t-120 -52t-212.5 -32.5q-233 0 -354 146t-121 415q0 102 22.5 191t74 170t148.5 129t230 48q127 0 215.5 -42t132.5 -117.5t62 -159.5t18 -191v-41zM573 1022 q-156 0 -243.5 -120t-87.5 -310h618q0 205 -59.5 317.5t-227.5 112.5zM838 1190h-113l-139 139l-137 -139h-111l219 211h59z" />
<glyph unicode="&#xeb;" horiz-adv-x="1099" d="M1001 530h-761q0 -260 94 -374.5t244 -114.5q109 0 199.5 37t119.5 61.5t45 44.5v-86q-12 -12 -36.5 -31.5t-120 -52t-212.5 -32.5q-233 0 -354 146t-121 415q0 102 22.5 191t74 170t148.5 129t230 48q127 0 215.5 -42t132.5 -117.5t62 -159.5t18 -191v-41zM573 1022 q-156 0 -243.5 -120t-87.5 -310h618q0 205 -59.5 317.5t-227.5 112.5zM365 1264v137h120v-137h-120zM674 1264v137h121v-137h-121z" />
<glyph unicode="&#xec;" horiz-adv-x="458" d="M295 1063v-1063h-131v1063h131zM266 1190h-82l-202 211h137z" />
<glyph unicode="&#xed;" horiz-adv-x="458" d="M295 1063v-1063h-131v1063h131zM272 1190h-79l147 211h135z" />
<glyph unicode="&#xee;" horiz-adv-x="458" d="M481 1190h-114l-140 139l-137 -139h-108l217 211h59zM295 1063v-1063h-131v1063h131z" />
<glyph unicode="&#xef;" horiz-adv-x="458" d="M295 1063v-1063h-131v1063h131zM12 1264v137h123v-137h-123zM322 1264v137h122v-137h-122z" />
<glyph unicode="&#xf0;" horiz-adv-x="1163" d="M582 1147l-45 49l94 80q-57 47 -115.5 82t-88.5 48t-32 11l41 58q127 -39 262 -142l99 84l49 -49l-94 -78q313 -285 313 -758q0 -111 -24.5 -205t-79 -173.5t-151.5 -125.5t-230 -46q-109 0 -193 30.5t-138 81.5t-88 124t-48.5 149.5t-14.5 164.5q0 111 24.5 204t78 174 t151 126t230.5 45q164 0 268 -73q-25 51 -73 118.5t-95 104.5zM578 41q344 0 344 491q0 266 -88.5 378t-249.5 112q-158 0 -250 -117t-92 -373q0 -254 93 -372.5t243 -118.5z" />
<glyph unicode="&#xf1;" horiz-adv-x="1118" d="M823 1401h82q-10 -90 -60 -139.5t-128 -49.5q-68 0 -154 58.5t-127 58.5q-100 0 -114 -112h-86q12 88 65 137t133 49q72 0 156 -58.5t123 -58.5q47 0 76.5 35t33.5 80zM985 0h-131v680q0 342 -268 342q-31 0 -61.5 -5t-56.5 -13.5t-49.5 -19.5t-41.5 -25l-35 -24 q-16 -11 -28.5 -23.5t-19.5 -20.5t-13 -14l-7 -9v-868h-131v1063h82l29 -129q2 0 16.5 14.5t31.5 29.5t49 34.5t65 34t81 24.5t97 10q391 0 391 -389v-692z" />
<glyph unicode="&#xf2;" horiz-adv-x="1163" d="M582 1081q137 0 234 -45t149.5 -126t76 -173t23.5 -205q0 -111 -24.5 -205t-79 -173.5t-151.5 -125.5t-230 -46q-109 0 -193 30.5t-138 81.5t-88 124t-48.5 149.5t-14.5 164.5q0 111 24.5 204t78 174t151 126t230.5 45zM578 41q346 0 346 491q0 266 -89.5 378t-250.5 112 q-158 0 -251 -117t-93 -373q0 -254 93 -372.5t245 -118.5zM618 1190h-81l-203 211h137z" />
<glyph unicode="&#xf3;" horiz-adv-x="1163" d="M582 1081q137 0 234 -45t149.5 -126t76 -173t23.5 -205q0 -111 -24.5 -205t-79 -173.5t-151.5 -125.5t-230 -46q-109 0 -193 30.5t-138 81.5t-88 124t-48.5 149.5t-14.5 164.5q0 111 24.5 204t78 174t151 126t230.5 45zM578 41q346 0 346 491q0 266 -89.5 378t-250.5 112 q-158 0 -251 -117t-93 -373q0 -254 93 -372.5t245 -118.5zM635 1190h-82l147 211h138z" />
<glyph unicode="&#xf4;" horiz-adv-x="1163" d="M582 1081q137 0 234 -45t149.5 -126t76 -173t23.5 -205q0 -111 -24.5 -205t-79 -173.5t-151.5 -125.5t-230 -46q-109 0 -193 30.5t-138 81.5t-88 124t-48.5 149.5t-14.5 164.5q0 111 24.5 204t78 174t151 126t230.5 45zM578 41q346 0 346 491q0 266 -89.5 378t-250.5 112 q-158 0 -251 -117t-93 -373q0 -254 93 -372.5t245 -118.5zM840 1190h-115l-139 139l-137 -139h-109l217 211h59z" />
<glyph unicode="&#xf5;" horiz-adv-x="1163" d="M582 1081q137 0 234 -45t149.5 -126t76 -173t23.5 -205q0 -111 -24.5 -205t-79 -173.5t-151.5 -125.5t-230 -46q-109 0 -193 30.5t-138 81.5t-88 124t-48.5 149.5t-14.5 164.5q0 111 24.5 204t78 174t151 126t230.5 45zM578 41q346 0 346 491q0 266 -89.5 378t-250.5 112 q-158 0 -251 -117t-93 -373q0 -254 93 -372.5t245 -118.5zM836 1401h82q-10 -90 -60.5 -139.5t-128.5 -49.5q-66 0 -151.5 58.5t-128.5 58.5q-100 0 -115 -112h-86q12 88 65.5 137t132.5 49q72 0 157 -58.5t122 -58.5q47 0 77 35t34 80z" />
<glyph unicode="&#xf6;" horiz-adv-x="1163" d="M582 1081q137 0 234 -45t149.5 -126t76 -173t23.5 -205q0 -111 -24.5 -205t-79 -173.5t-151.5 -125.5t-230 -46q-109 0 -193 30.5t-138 81.5t-88 124t-48.5 149.5t-14.5 164.5q0 111 24.5 204t78 174t151 126t230.5 45zM578 41q346 0 346 491q0 266 -89.5 378t-250.5 112 q-158 0 -251 -117t-93 -373q0 -254 93 -372.5t245 -118.5zM362 1264v137h121v-137h-121zM670 1264v137h123v-137h-123z" />
<glyph unicode="&#xf7;" horiz-adv-x="1275" d="M1026 592v-90h-807v90h807zM555 838v129h135v-129h-135zM555 141v127h135v-127h-135z" />
<glyph unicode="&#xf8;" horiz-adv-x="1163" d="M582 1081q172 0 284 -75l41 57h84l-69 -100q143 -141 143 -431q0 -111 -24.5 -205t-79 -173.5t-151.5 -125.5t-230 -46q-178 0 -289 81l-43 -63h-80l72 102q-141 141 -142 430q0 111 24.5 204t78 174t151 126t230.5 45zM242 532q0 -211 67 -329l506 727q-84 92 -231 92 q-158 0 -250 -117t-92 -373zM578 41q344 0 344 491q0 213 -68 334l-508 -723q87 -102 232 -102z" />
<glyph unicode="&#xf9;" horiz-adv-x="1128" d="M602 1190h-82l-203 211h138zM143 1063h131v-682q0 -340 271 -340q37 0 71.5 7t62.5 17.5t52.5 24.5t43 28.5t33.5 30t24.5 26.5t15.5 20l6 8v860h131v-1063h-82l-29 129l-18 -18q-18 -20 -44 -39t-63.5 -41.5t-93 -35.5t-118.5 -13q-197 0 -295.5 103t-98.5 296v682z" />
<glyph unicode="&#xfa;" horiz-adv-x="1128" d="M623 1190h-82l147 211h137zM143 1063h131v-682q0 -340 271 -340q37 0 71.5 7t62.5 17.5t52.5 24.5t43 28.5t33.5 30t24.5 26.5t15.5 20l6 8v860h131v-1063h-82l-29 129l-18 -18q-18 -20 -44 -39t-63.5 -41.5t-93 -35.5t-118.5 -13q-197 0 -295.5 103t-98.5 296v682z" />
<glyph unicode="&#xfb;" horiz-adv-x="1128" d="M811 1190h-115l-137 139l-139 -139h-109l217 211h60zM143 1063h131v-682q0 -340 271 -340q37 0 71.5 7t62.5 17.5t52.5 24.5t43 28.5t33.5 30t24.5 26.5t15.5 20l6 8v860h131v-1063h-82l-29 129l-18 -18q-18 -20 -44 -39t-63.5 -41.5t-93 -35.5t-118.5 -13 q-197 0 -295.5 103t-98.5 296v682z" />
<glyph unicode="&#xfc;" horiz-adv-x="1128" d="M344 1264v137h123v-137h-123zM653 1264v137h123v-137h-123zM143 1063h131v-682q0 -340 271 -340q37 0 71.5 7t62.5 17.5t52.5 24.5t43 28.5t33.5 30t24.5 26.5t15.5 20l6 8v860h131v-1063h-82l-29 129l-18 -18q-18 -20 -44 -39t-63.5 -41.5t-93 -35.5t-118.5 -13 q-197 0 -295.5 103t-98.5 296v682z" />
<glyph unicode="&#xfd;" horiz-adv-x="1011" d="M45 1063h137l346 -895l351 895h88l-586 -1475h-86l166 412zM557 1190h-82l148 211h137z" />
<glyph unicode="&#xfe;" horiz-adv-x="1132" d="M143 1391h131v-441q4 6 11.5 14.5t36 31t60.5 40t85 31.5t113 14q225 0 339.5 -143t114.5 -401t-111.5 -406.5t-347.5 -148.5q-90 0 -164.5 31.5t-105.5 62.5l-31 30v-518h-131v1803zM571 1022q-66 0 -123 -21.5t-94 -54.5t-53 -52.5t-27 -35.5v-661l12 -17 q7 -10 33.5 -37.5t58.5 -48t84 -37t109 -16.5q158 0 241 113.5t83 380.5q0 487 -324 487z" />
<glyph unicode="&#xff;" horiz-adv-x="1011" d="M45 1063h137l346 -895l351 895h88l-586 -1475h-86l166 412zM297 1264v137h121v-137h-121zM606 1264v137h121v-137h-121z" />
<glyph unicode="&#x152;" horiz-adv-x="2088" d="M1960 1339h-586v-573h453v-61h-453v-644h586v-61h-727v205q-158 -233 -500 -234q-631 0 -631 729q0 119 17.5 220.5t62.5 197.5t115 163t182.5 108t257.5 41q342 0 496 -224v195h727v-62zM731 33q225 0 360.5 156.5t135.5 510.5q0 668 -484 668q-225 0 -360 -162 t-135 -506q0 -340 136 -503.5t347 -163.5z" />
<glyph unicode="&#x153;" horiz-adv-x="1925" d="M1827 530h-760q2 -260 95 -374.5t243 -114.5q109 0 200 37t119.5 61.5t44.5 44.5v-86q-12 -12 -36.5 -31.5t-119.5 -52t-212 -32.5q-293 0 -406 233q-119 -233 -415 -233q-109 0 -193 30.5t-138 81.5t-88 124t-48.5 149.5t-14.5 164.5q0 111 24.5 204t78 174t151 126 t230.5 45q303 0 413 -229q117 229 406 229q127 0 215 -42t132 -117.5t61.5 -159.5t17.5 -191v-41zM578 41q346 0 346 491q0 266 -89.5 378t-250.5 112q-158 0 -251 -117t-93 -373q0 -254 93 -372.5t245 -118.5zM1401 1022q-156 0 -244 -120t-88 -310h617q0 205 -58.5 317.5 t-226.5 112.5z" />
<glyph unicode="&#x178;" horiz-adv-x="1187" d="M1135 1401l-480 -791v-610h-141v602l-461 799h160l397 -705l424 705h101zM367 1585v141h129v-141h-129zM723 1585v141h127v-141h-127z" />
<glyph unicode="&#x2c6;" horiz-adv-x="598" d="M547 1190h-113l-139 139l-137 -139h-111l219 211h60z" />
<glyph unicode="&#x2dc;" horiz-adv-x="786" d="M639 1401h82q-8 -90 -58.5 -139.5t-127.5 -49.5q-68 0 -155 58.5t-128 58.5q-98 0 -115 -112h-84q12 88 65.5 137t133.5 49q70 0 155 -58.5t123 -58.5q47 0 77 35t32 80z" />
<glyph unicode="&#x2000;" horiz-adv-x="933" />
<glyph unicode="&#x2001;" horiz-adv-x="1867" />
<glyph unicode="&#x2002;" horiz-adv-x="933" />
<glyph unicode="&#x2003;" horiz-adv-x="1867" />
<glyph unicode="&#x2004;" horiz-adv-x="622" />
<glyph unicode="&#x2005;" horiz-adv-x="466" />
<glyph unicode="&#x2006;" horiz-adv-x="311" />
<glyph unicode="&#x2007;" horiz-adv-x="311" />
<glyph unicode="&#x2008;" horiz-adv-x="233" />
<glyph unicode="&#x2009;" horiz-adv-x="372" />
<glyph unicode="&#x200a;" horiz-adv-x="102" />
<glyph unicode="&#x2010;" horiz-adv-x="743" d="M117 721h510v-70h-510v70z" />
<glyph unicode="&#x2011;" horiz-adv-x="743" d="M117 721h510v-70h-510v70z" />
<glyph unicode="&#x2012;" horiz-adv-x="743" d="M117 721h510v-70h-510v70z" />
<glyph unicode="&#x2013;" horiz-adv-x="907" d="M117 721h674v-70h-674v70z" />
<glyph unicode="&#x2014;" horiz-adv-x="1812" d="M117 721h1579v-70h-1579v70z" />
<glyph unicode="&#x2018;" horiz-adv-x="313" d="M219 1192v-135h-137v106l86 238h55l-53 -209h49z" />
<glyph unicode="&#x2019;" horiz-adv-x="313" d="M96 1264v137h135v-109l-86 -235h-53l53 207h-49z" />
<glyph unicode="&#x201a;" horiz-adv-x="364" d="M96 0v137h135v-108l-86 -238h-53l53 209h-49z" />
<glyph unicode="&#x201c;" horiz-adv-x="514" d="M219 1192v-135h-137v106l86 238h55l-53 -209h49zM418 1192v-135h-135v106l84 238h55l-53 -209h49z" />
<glyph unicode="&#x201d;" horiz-adv-x="514" d="M295 1264v137h135v-109l-84 -235h-55l53 207h-49zM96 1264v137h135v-109l-86 -235h-53l53 207h-49z" />
<glyph unicode="&#x201e;" horiz-adv-x="512" d="M295 0v137h135v-108l-84 -238h-55l53 209h-49zM96 0v137h135v-108l-86 -238h-53l53 209h-49z" />
<glyph unicode="&#x2022;" horiz-adv-x="772" d="M272 690q0 47 34 80t79 33q47 0 81 -33t34 -80t-34 -79.5t-81 -32.5q-45 0 -79 32.5t-34 79.5z" />
<glyph unicode="&#x2026;" horiz-adv-x="1640" d="M242 0v137h137v-137h-137zM752 0v137h137v-137h-137zM1262 0v137h137v-137h-137z" />
<glyph unicode="&#x202f;" horiz-adv-x="372" />
<glyph unicode="&#x2039;" horiz-adv-x="577" d="M66 575v31l319 375h121l-334 -387l332 -389h-125z" />
<glyph unicode="&#x203a;" horiz-adv-x="577" d="M522 606v-31l-313 -370h-125l332 389l-334 387h121z" />
<glyph unicode="&#x205f;" horiz-adv-x="466" />
<glyph unicode="&#x20ac;" horiz-adv-x="1388" d="M1001 770h-677q-2 -20 -2 -63v-39h643l-37 -93h-600q29 -266 163 -404t330 -138q82 0 157 17.5t122 41t88 52t57.5 45t24.5 26.5v-98q-53 -53 -166 -99.5t-287 -46.5q-287 0 -444.5 170t-188.5 434h-231l35 93h188v102h-149l32 92h129q41 250 201 409t438 159 q221 0 390 -113l-31 -70q-133 121 -355 121q-186 0 -326 -123t-175 -383h706z" />
<glyph unicode="&#x2122;" horiz-adv-x="1216" d="M537 1401v-37h-195v-518h-84v518h-195v37h474zM1130 846h-81l-72 422l-160 -422h-51l-158 416l-73 -416h-54l101 561h51l172 -455l174 455h49z" />
<glyph unicode="&#xe000;" horiz-adv-x="1065" d="M0 1065h1065v-1065h-1065v1065z" />
<glyph unicode="&#xfb01;" horiz-adv-x="1062" d="M899 1063v-1063h-131v1063h131zM899 1401v-158h-131v158h131zM281 1063h192v-62h-192v-1001h-131v1083q0 160 68.5 239t246.5 79h170v-62h-150q-205 0 -204 -211v-65z" />
<glyph unicode="&#xfb02;" horiz-adv-x="1062" d="M899 1401v-1401h-131v1401h131zM281 1063h192v-62h-192v-1001h-131v1083q0 160 68.5 239t246.5 79h170v-62h-150q-205 0 -204 -211v-65z" />
<glyph unicode="&#xfb03;" horiz-adv-x="1667" d="M1503 1063v-1063h-131v1063h131zM1503 1401v-158h-131v158h131zM885 1063h192v-62h-192v-1001h-131v1083q0 160 68.5 239t246.5 79h170v-62h-150q-205 0 -204 -211v-65zM281 1063h192v-62h-192v-1001h-131v1083q0 160 68.5 239t246.5 79h170v-62h-150q-205 0 -204 -211 v-65z" />
<glyph unicode="&#xfb04;" horiz-adv-x="1667" d="M1503 1401v-1401h-131v1401h131zM885 1063h192v-62h-192v-1001h-131v1083q0 160 68.5 239t246.5 79h170v-62h-150q-205 0 -204 -211v-65zM281 1063h192v-62h-192v-1001h-131v1083q0 160 68.5 239t246.5 79h170v-62h-150q-205 0 -204 -211v-65z" />
</font>
</defs>
</svg>
